# xmcd CD database file
#
# Track frame offsets:
#	150
#	16203
#	31138
#	45109
#	61938
#	81816
#	94831
#	108296
#	124241
#	138332
#	153750
#	173526
#	187129
#
# Disc length: 2704 seconds
#
# Revision: 0
# Processed by: cddbd v1.5.2PL0 Copyright (c) Steve Scherf et al.
# Submitted via: CDex 1.51
#
DISCID=950a8e0d
DTITLE=The Dirty River Boys - The Dirty River Boys
DYEAR=2011
DGENRE=Country
TTITLE0=The Dirty River Boys - Down By The River
TTITLE1=The Dirty River Boys - Sailed Away
TTITLE2=The Dirty River Boys - Thought I'd Let You Know
TTITLE3=The Dirty River Boys - Simplified 
TTITLE4=The Dirty River Boys - Scraping The Bottom
TTITLE5=The Dirty River Boys - Highway Love
TTITLE6=The Dirty River Boys - Loser 
TTITLE7=The Dirty River Boys - Didn't Make The Cut 
TTITLE8=The Dirty River Boys - Skate And Destroy 
TTITLE9=The Dirty River Boys - Soldier In Time 
TTITLE10=The Dirty River Boys - Teenage Renegade
TTITLE11=The Dirty River Boys - Life Show Me Love 
TTITLE12=The Dirty River Boys - Falcon's Song
EXTD=YEAR: 2011
EXTT0=
EXTT1=
EXTT2=
EXTT3=
EXTT4=
EXTT5=
EXTT6=
EXTT7=
EXTT8=
EXTT9=
EXTT10=
EXTT11=
EXTT12=
PLAYORDER=
